<svg width="20" height="20" viewBox="0 0 20 20" fill="none" xmlns="http://www.w3.org/2000/svg">
<path fill-rule="evenodd" clip-rule="evenodd" d="M2.11883 9.7503L9.85856 2.05814C9.93656 1.98062 10.0625 1.98062 10.1405 2.05814L17.8803 9.7503C18.1334 10.0019 17.9552 10.434 17.5983 10.434H16.6643V16.0034C16.6643 17.108 15.7689 18.0034 14.6643 18.0034H12.904C12.3517 18.0034 11.904 17.5557 11.904 17.0034V10.434H11.9037V13.2723H8.09554V17.0034C8.09554 17.5557 7.64782 18.0034 7.09554 18.0034H5.33518C4.23061 18.0034 3.33518 17.108 3.33518 16.0034V10.434H2.4008C2.04384 10.434 1.86565 10.0019 2.11883 9.7503Z" fill="#9A9A9A"/>
</svg>
