<svg width="20" height="20" viewBox="0 0 20 20" fill="none" xmlns="http://www.w3.org/2000/svg">
<path fill-rule="evenodd" clip-rule="evenodd" d="M18.9995 10.002C18.9995 5.03168 14.9698 1.00195 9.99951 1.00195C5.02924 1.00195 0.999512 5.03168 0.999512 10.002C0.999512 14.9728 5.02924 19.002 9.99951 19.002C14.9698 19.002 18.9995 14.9722 18.9995 10.002ZM6.36204 13.6874C6.11264 13.4522 5.95585 13.1281 5.9223 12.7783L5.86385 12.1659H14.1411L14.0826 12.7783C14.0491 13.1281 13.8923 13.4522 13.6429 13.6874C13.3935 13.9226 13.0694 14.0519 12.7338 14.0502H7.27111C6.93557 14.0519 6.61145 13.9226 6.36204 13.6874ZM13.9813 7.53372C14.1496 7.61813 14.2888 7.75534 14.3794 7.92634C14.4723 8.09793 14.513 8.29512 14.4963 8.49161L14.2265 11.2238H5.77393L5.50417 8.49161C5.4863 8.29562 5.52549 8.09855 5.61657 7.92634C5.70768 7.75361 5.84826 7.61522 6.01848 7.5307C6.18869 7.44618 6.37994 7.41979 6.56523 7.45527C6.7445 7.49579 6.90766 7.59277 7.03282 7.7332L7.43747 8.15716C7.52121 8.24418 7.63424 8.29325 7.75219 8.29377C7.81266 8.2979 7.87331 8.28918 7.93048 8.26813C7.98766 8.24708 8.04018 8.21414 8.0849 8.17129L9.43371 6.21721C9.6016 6.046 9.82663 5.9502 10.0609 5.9502C10.2952 5.9502 10.5202 6.046 10.6881 6.21721L11.938 8.11476C11.9797 8.15927 12.0293 8.19468 12.0841 8.21894C12.1389 8.2432 12.1977 8.25582 12.2572 8.25608C12.3157 8.25683 12.3737 8.24563 12.4281 8.22311C12.482 8.19874 12.5309 8.16354 12.572 8.11947L12.9586 7.71907C13.0892 7.5813 13.2572 7.48916 13.4397 7.45527C13.6236 7.42189 13.8129 7.44931 13.9813 7.53372Z" fill="#999999"/>
</svg>
