<svg width="24" height="24" viewBox="0 0 24 24" fill="none" xmlns="http://www.w3.org/2000/svg">
<path d="M14.79 5.62977C15.09 5.92977 15.47 6.12977 15.88 6.20977C16.29 6.28977 16.72 6.24977 17.11 6.08977C17.5 5.92977 17.83 5.65977 18.07 5.30977C18.3 4.95977 18.43 4.54977 18.43 4.12977C18.43 3.56977 18.2 3.02977 17.81 2.62977C17.41 2.22977 16.87 2.00977 16.3 2.00977C15.88 2.00977 15.47 2.13977 15.12 2.36977C14.77 2.59977 14.5 2.93977 14.34 3.31977C14.18 3.70977 14.14 4.12977 14.22 4.54977C14.3 4.95977 14.5 5.33977 14.8 5.63977L14.79 5.62977ZM10.07 16.0398L8.47 14.4098C8.41 14.3498 8.34 14.2998 8.27 14.2698C8.19 14.2398 8.11 14.2198 8.03 14.2198C7.95 14.2198 7.86 14.2398 7.79 14.2698C7.71 14.2998 7.64 14.3498 7.59 14.4098L3.53 18.2498C3.22 18.5598 3.04 18.9698 3 19.3998C3 19.6198 3.03 19.8298 3.11 20.0398C3.19 20.2398 3.31 20.4298 3.46 20.5798C3.76 20.8898 4.18 21.0698 4.61 21.0698C4.99 21.0698 5.36 20.9298 5.66 20.6798L10.01 16.9698C10.14 16.8598 10.22 16.6998 10.23 16.5298C10.24 16.4398 10.23 16.3498 10.21 16.2698C10.19 16.1898 10.14 16.1098 10.07 16.0498V16.0398ZM20.86 8.90977C20.75 8.71977 20.6 8.54977 20.42 8.42977C20.24 8.29977 20.03 8.21977 19.81 8.17977C19.7 8.14977 19.59 8.13977 19.48 8.13977C19.14 8.13977 18.82 8.25977 18.55 8.45977L15.91 10.3898C15.81 10.4698 15.74 10.5698 15.69 10.6798C15.64 10.7898 15.63 10.9198 15.65 11.0398C15.67 11.1598 15.72 11.2798 15.81 11.3698C15.9 11.4598 16.01 11.5198 16.13 11.5498L17.06 11.7698C17.37 11.8398 17.69 11.8798 18 11.8798C18.91 11.8798 19.8 11.5598 20.5 10.9698C21.11 10.3998 21.25 9.54977 20.85 8.91977L20.86 8.90977ZM13.27 11.9698L13.36 11.8898C14.02 11.2898 14.84 10.3598 15.04 9.30977C15.11 8.94977 15.11 8.57977 15.03 8.21977C14.95 7.85977 14.8 7.52977 14.58 7.22977C14.56 7.20977 14.54 7.17977 14.53 7.15977C14.53 7.14977 14.53 7.13977 14.51 7.12977C13.31 5.75977 11.58 5.14977 9.38 5.29977C7.64 5.44977 5.94 5.94977 4.4 6.76977C4.21 6.85977 4.03 6.98977 3.89 7.14977C3.75 7.30977 3.64 7.48977 3.57 7.69977C3.5 7.89977 3.47 8.11977 3.49 8.32977C3.51 8.53977 3.57 8.74976 3.67 8.93976C3.77 9.12976 3.91 9.29977 4.07 9.42977C4.24 9.55977 4.43 9.65977 4.63 9.71977C4.84 9.77977 5.05 9.78977 5.26 9.76977C5.47 9.73977 5.68 9.66977 5.86 9.55977C6.45 9.24977 8.37 8.42977 10.05 8.42977C10.65 8.39977 11.24 8.54977 11.75 8.85977L11.84 8.91977L11.77 9.00977C11.24 9.61977 10.62 10.1298 9.91 10.5198C9.7 10.6498 9.52 10.8298 9.39 11.0398C9.26 11.2498 9.17 11.4898 9.14 11.7398C9.12 11.9898 9.16 12.2398 9.26 12.4698C9.36 12.6998 9.51 12.8998 9.7 13.0598L13.05 15.8698L10.49 19.5198C10.26 19.8698 10.17 20.2898 10.24 20.6998C10.31 21.1098 10.54 21.4698 10.87 21.7198C11.14 21.8898 11.45 21.9898 11.77 21.9998C12.02 21.9998 12.27 21.9298 12.5 21.8198C12.72 21.6998 12.92 21.5398 13.07 21.3398L16.42 16.5198C16.64 16.1998 16.74 15.8098 16.69 15.4198C16.64 15.0298 16.44 14.6798 16.14 14.4298L13.25 11.9798L13.27 11.9698Z" fill="#878889"/>
</svg>
