<svg width="15" height="10" viewBox="0 0 15 10" fill="none" xmlns="http://www.w3.org/2000/svg">
<path d="M0.399902 1C0.399902 0.447715 0.847618 0 1.3999 0H13.3999C13.9522 0 14.3999 0.447715 14.3999 1C14.3999 1.55228 13.9522 2 13.3999 2H1.3999C0.847618 2 0.399902 1.55228 0.399902 1Z" fill="#9E9E9E"/>
<path d="M0.399902 5C0.399902 4.44772 0.847618 4 1.3999 4H13.3999C13.9522 4 14.3999 4.44772 14.3999 5C14.3999 5.55228 13.9522 6 13.3999 6H1.3999C0.847618 6 0.399902 5.55228 0.399902 5Z" fill="#9E9E9E"/>
<path d="M0.399902 9C0.399902 8.44772 0.847618 8 1.3999 8H13.3999C13.9522 8 14.3999 8.44772 14.3999 9C14.3999 9.55228 13.9522 10 13.3999 10H1.3999C0.847618 10 0.399902 9.55228 0.399902 9Z" fill="#9E9E9E"/>
</svg>
